<svg xmlns="http://www.w3.org/2000/svg" viewBox="0 0 1024 1024" width="1024" height="1024">
  <rect width="1024" height="1024" rx="208" fill="#0a0a0a"/>
  <path d="M 492 224.601 C 465.800 227.519, 452.449 229.700, 434 234.073 C 411.438 239.421, 383.281 250.002, 362.146 261.074 C 313.693 286.458, 271.928 329.359, 246.644 379.716 C 233.919 405.060, 224.606 434.797, 219.779 465.500 C 217.845 477.800, 217.579 483.385, 217.592 511.500 C 217.605 539.405, 217.886 545.292, 219.790 557.500 C 223.881 583.734, 232.562 613.921, 242.121 635.150 C 268.024 692.677, 311.624 738.233, 367.735 766.399 C 404.451 784.829, 433.922 793.541, 478.500 799.145 C 494.062 801.101, 539.760 800.825, 554.500 798.686 C 598.653 792.279, 622.659 784.204, 674.064 758.468 C 695.859 747.556, 706.896 743.762, 717 743.707 C 733.221 743.619, 739.531 751.663, 746.104 780.808 C 748.567 791.732, 748.493 791.651, 754.875 790.375 L 758 789.750 758.013 685.125 C 758.025 586.973, 758.142 579.941, 759.890 571.469 C 764.835 547.513, 778.710 533.871, 802.750 529.330 L 812 527.582 812 523.291 L 812 519 660.559 519 C 569.146 519, 508.892 519.366, 508.548 519.923 C 507.166 522.159, 482.047 602.470, 482.017 604.750 C 482.006 605.567, 483.557 606, 486.498 606 L 490.996 606 495.420 596.750 C 507.703 571.069, 523.527 554.725, 547.500 542.957 C 568.685 532.558, 587.622 528.464, 610.500 529.337 C 626.930 529.964, 634.478 531.622, 645.791 537.090 C 661.128 544.502, 670.084 555.902, 675.180 574.500 C 677.270 582.125, 677.391 584.816, 677.761 631.846 C 678.196 686.978, 677.708 693.412, 671.872 709.541 C 665.391 727.452, 649.663 745.793, 628.976 759.565 C 599.277 779.337, 551.826 790.149, 513.211 785.942 C 490.688 783.489, 463.694 775.716, 442.578 765.603 C 384.888 737.973, 336.129 676.103, 316.048 605.048 C 305.949 569.313, 302.688 545.265, 302.618 506 C 302.545 465.483, 306.024 440.257, 316.550 405 C 324.324 378.959, 334.898 356.369, 349.975 333.595 C 376.741 293.163, 410.567 264.953, 450.077 250.113 C 475.177 240.686, 491.789 237.641, 518.500 237.573 C 546.235 237.502, 565.510 240.645, 590.544 249.320 C 610.003 256.063, 620.015 261.068, 639 273.543 C 667.868 292.513, 693.584 319.252, 711.221 348.636 C 720.152 363.515, 724.479 372.587, 730.951 390 C 733.506 396.875, 735.913 402.387, 736.298 402.250 C 736.684 402.113, 738.719 402, 740.820 402 L 744.639 402 742.807 387.250 C 741.800 379.137, 738.930 357.425, 736.431 339 C 733.932 320.575, 731.259 300.799, 730.491 295.052 C 729.580 288.233, 728.455 283.747, 727.250 282.133 C 724.706 278.725, 699.699 265.354, 681 257.403 C 643.430 241.429, 606.973 231.699, 565 226.447 C 552.320 224.860, 501.264 223.569, 492 224.601" fill="#ffffff"/>
</svg>
